<svg xmlns="http://www.w3.org/2000/svg" width="512" height="512" viewBox="0 0 512 512">
<g>
<path d="M 266.58 349.42 C259.14,352.94 252.27,352.89 245.23,349.26 C240.70,346.92 235.13,340.98 205.63,307.02 C186.76,285.28 169.72,265.70 167.77,263.50 C165.82,261.30 156.43,250.50 146.90,239.50 C137.37,228.50 122.87,211.85 114.67,202.50 C98.46,184.02 95.50,179.24 96.59,173.25 C97.52,168.11 104.31,161.54 109.61,160.67 C115.77,159.65 399.99,159.93 404.50,160.96 C407.27,161.59 409.66,163.17 412.25,166.06 C415.57,169.78 416.00,170.85 416.00,175.49 C416.00,179.37 415.42,181.48 413.78,183.62 C411.85,186.13 397.06,203.29 379.07,223.88 C376.01,227.40 370.12,234.17 366.00,238.95 C361.88,243.72 339.04,269.95 315.27,297.23 C275.90,342.40 271.54,347.07 266.58,349.42 Z" fill="rgb(0,0,0)"/>
<path d="M 0.00 0.00 L 512.00 0.00 L 512.00 512.00 L 0.00 512.00 ZM 266.58 349.42 C271.54,347.07 275.90,342.40 315.27,297.23 C316.53,295.78 317.80,294.32 319.06,292.88 C312.69,300.41 312.36,301.54 313.60,302.45 C315.90,304.13 320.37,302.42 319.51,300.18 C318.71,298.07 321.73,295.12 324.06,295.73 C327.08,296.52 329.07,294.33 327.97,291.42 C327.46,290.09 327.15,288.95 327.27,288.89 C327.40,288.82 328.77,288.62 330.33,288.44 C333.83,288.03 336.00,286.32 336.00,283.99 C336.00,281.80 339.92,276.82 339.97,278.95 C340.01,280.94 342.26,278.69 342.65,276.27 C343.64,270.17 344.13,265.00 343.73,265.00 C343.57,265.00 340.74,268.09 336.56,272.79 C341.25,267.41 345.63,262.37 349.52,257.91 C347.32,260.70 345.72,263.12 346.25,263.34 C349.61,264.69 351.57,263.26 352.15,259.00 C352.41,257.16 353.19,256.42 355.11,256.20 C357.68,255.90 361.27,251.00 358.92,251.00 C358.35,251.00 358.16,250.55 358.50,250.00 C358.84,249.45 358.71,249.00 358.20,249.00 C357.74,249.00 356.56,250.00 355.11,251.48 C359.31,246.65 362.58,242.89 364.55,240.62 C360.09,245.90 358.91,247.79 360.76,246.65 C361.32,246.30 362.34,246.70 363.03,247.54 C364.15,248.88 364.49,248.87 366.14,247.38 C367.25,246.37 367.82,244.80 367.57,243.41 C367.12,240.92 369.27,238.43 370.97,239.48 C371.54,239.84 372.93,239.84 374.04,239.49 C375.65,238.98 376.00,238.12 375.78,235.17 C375.51,231.65 375.63,231.50 378.80,231.40 C380.61,231.35 382.55,230.85 383.10,230.30 C384.46,228.94 382.30,224.33 380.31,224.33 C379.49,224.33 374.84,228.85 369.90,234.44 C373.29,230.53 376.89,226.38 379.07,223.88 C379.49,223.40 379.91,222.92 380.33,222.45 C380.10,222.96 380.57,223.00 381.66,223.00 C383.72,223.00 390.00,220.26 390.00,219.37 C390.00,219.10 389.55,219.16 389.00,219.50 C386.93,220.78 388.10,218.27 390.58,216.12 C392.20,214.71 394.15,213.99 395.83,214.19 C397.90,214.43 398.53,214.05 398.65,212.50 C398.73,211.40 398.94,208.83 399.10,206.79 C399.27,204.74 399.15,202.82 398.85,202.51 C398.54,202.20 395.21,205.45 391.46,209.73 C390.18,211.18 388.84,212.70 387.59,214.11 C393.18,207.68 398.24,201.85 402.40,197.02 C399.53,200.50 400.09,200.50 402.36,200.19 C406.20,199.65 408.26,198.13 407.58,196.34 C406.73,194.13 408.08,192.00 410.36,191.97 C413.75,191.92 416.00,189.59 416.00,186.14 C416.00,184.41 415.66,183.00 415.25,183.01 C414.86,183.01 411.46,186.56 407.53,191.04 C410.89,187.12 413.11,184.49 413.78,183.62 C415.42,181.48 416.00,179.37 416.00,175.49 C416.00,171.00 415.60,169.85 412.55,166.40 C415.18,168.66 416.30,168.16 415.83,164.89 C415.46,162.29 411.77,159.99 409.09,160.69 C407.83,161.02 407.88,161.57 409.87,163.73 C408.13,162.28 406.40,161.39 404.50,160.96 C399.99,159.93 115.77,159.65 109.61,160.67 C104.31,161.54 97.52,168.11 96.59,173.25 C95.67,178.33 97.65,182.53 108.14,194.94 C105.80,192.38 105.00,192.62 105.00,195.39 C105.00,197.71 107.25,199.51 109.67,199.13 C110.32,199.03 111.13,199.41 111.48,199.97 C111.83,200.54 112.34,201.00 112.61,201.00 C112.87,201.00 111.65,199.20 109.88,197.00 C109.82,196.93 109.77,196.86 109.72,196.80 C111.21,198.54 112.86,200.43 114.67,202.50 C118.16,206.48 122.79,211.78 127.69,217.41 C120.24,208.99 114.20,202.29 113.83,202.15 C112.98,201.83 112.91,212.54 113.76,214.26 C113.96,214.68 114.88,214.61 115.79,214.10 C116.89,213.48 118.36,213.65 120.22,214.61 C122.87,215.98 123.17,216.50 123.40,220.00 C123.46,220.82 123.95,221.51 124.50,221.52 C126.89,221.55 128.00,223.40 128.00,227.35 C128.00,231.38 128.15,231.59 131.18,231.82 C134.89,232.10 137.09,233.61 136.40,235.41 C135.80,236.96 137.65,238.52 141.03,239.33 C142.87,239.76 143.62,240.66 143.78,242.61 C144.11,246.63 145.69,248.07 148.58,246.97 C150.58,246.21 151.00,246.36 151.00,247.82 C151.00,248.80 151.54,250.14 152.20,250.80 C152.86,251.46 153.03,252.00 152.58,252.00 C152.13,252.00 152.28,252.63 152.92,253.41 C153.56,254.18 154.86,254.66 155.79,254.48 C156.73,254.30 157.88,254.12 158.33,254.08 C158.79,254.03 157.82,252.31 156.17,250.25 C155.93,249.95 155.65,249.61 155.32,249.21 C157.56,251.79 159.65,254.19 161.46,256.27 C161.21,256.10 160.99,256.00 160.81,256.00 C160.37,256.00 160.00,257.35 160.00,259.00 C160.00,260.65 160.48,262.00 161.06,262.00 C161.64,262.00 161.82,262.48 161.46,263.07 C160.65,264.37 164.20,263.91 165.16,262.59 C165.52,262.09 164.75,260.41 163.72,258.87 C165.70,261.14 167.13,262.78 167.77,263.50 C168.44,264.26 170.90,267.08 174.61,271.34 C171.10,267.37 169.01,265.07 168.90,265.06 C168.56,265.03 168.34,267.63 168.40,270.85 C168.50,276.42 170.25,280.58 172.03,279.48 C172.48,279.21 173.44,279.58 174.17,280.31 C174.90,281.04 175.88,281.69 176.33,281.74 C176.79,281.79 177.47,282.17 177.83,282.58 C178.20,282.99 177.94,283.00 177.25,282.60 C176.37,282.09 176.10,282.55 176.34,284.14 C176.53,285.38 177.32,286.71 178.09,287.08 C178.87,287.46 180.72,288.34 182.22,289.03 C183.71,289.73 184.70,290.67 184.42,291.13 C183.57,292.50 186.05,296.19 187.46,295.65 C189.38,294.92 193.00,297.80 193.00,300.06 C193.00,301.13 193.45,302.06 194.00,302.12 C194.55,302.19 195.35,302.31 195.77,302.38 C197.28,302.62 201.50,306.52 201.60,307.75 C201.65,308.44 201.77,309.41 201.85,309.92 C201.93,310.42 203.99,311.60 206.43,312.53 C209.41,313.66 210.68,314.67 210.32,315.60 C210.03,316.36 209.39,316.74 208.90,316.44 C207.49,315.57 207.85,316.99 209.43,318.57 C210.21,319.36 211.73,320.00 212.81,320.00 C214.80,320.00 217.19,322.12 216.92,323.64 C216.54,325.76 217.19,327.09 219.74,329.46 C221.25,330.86 223.02,332.00 223.68,332.00 C224.34,332.00 225.20,332.52 225.60,333.15 C226.04,333.87 225.87,334.04 225.15,333.60 C223.61,332.64 223.68,334.25 225.25,335.95 C226.26,337.03 226.24,337.14 225.15,336.53 C222.47,335.00 225.71,339.42 229.48,342.42 C231.94,344.38 232.99,345.93 232.68,347.13 C232.37,348.29 232.89,349.15 234.12,349.54 C235.17,349.87 235.83,350.47 235.59,350.86 C234.82,352.09 240.36,352.08 243.37,350.84 L 246.13 349.70 C252.86,352.89 259.45,352.79 266.58,349.42 ZM 264.46 351.11 C264.69,351.32 267.84,351.61 271.46,351.74 C277.69,351.96 278.11,351.84 279.02,349.45 C279.55,348.07 279.93,346.61 279.87,346.22 C279.49,343.70 280.20,343.09 282.88,343.63 C284.53,343.96 286.05,343.73 286.44,343.09 C287.47,341.43 286.05,337.86 284.68,338.65 C284.03,339.02 284.51,338.21 285.75,336.85 C286.99,335.49 288.00,333.86 288.00,333.23 C288.00,332.60 289.56,330.84 291.47,329.32 C293.38,327.79 295.21,325.32 295.54,323.82 C296.05,321.49 298.33,319.76 301.17,319.55 C302.38,319.46 303.47,317.88 303.49,316.19 C303.49,315.25 305.14,313.75 307.25,312.75 C309.46,311.71 311.01,310.27 311.01,309.24 C311.02,308.28 311.30,306.49 311.63,305.25 C311.97,304.00 311.78,303.00 311.22,303.00 C310.66,303.00 301.63,312.84 291.16,324.87 C277.64,340.39 270.95,347.31 268.09,348.73 C265.87,349.82 264.24,350.90 264.46,351.11 ZM 96.00 167.90 L 96.01 172.50 L 97.86 169.50 C98.88,167.85 100.68,165.64 101.86,164.60 C104.54,162.21 104.55,161.31 101.93,160.48 C98.52,159.39 96.00,162.55 96.00,167.90 ZM 97.48 191.18 C97.24,191.43 98.78,191.60 100.91,191.57 L 104.78 191.50 L 102.82 188.75 C101.74,187.24 100.19,186.00 99.37,186.00 C98.51,186.00 98.15,185.47 98.52,184.75 C98.86,184.06 98.46,184.35 97.61,185.39 C96.55,186.70 96.36,187.81 97.00,189.01 C97.51,189.96 97.73,190.94 97.48,191.18 ZM 243.65 348.31 L 242.87 347.90 C242.36,347.64 241.11,346.48 239.19,344.51 C241.08,346.34 242.46,347.50 243.65,348.31 Z" fill="rgb(254,254,254)"/>
<path d="M 235.59 350.86 C235.83,350.47 235.17,349.87 234.12,349.54 C232.89,349.15 232.37,348.29 232.68,347.13 C232.99,345.93 231.94,344.38 229.48,342.42 C225.71,339.42 222.47,335.00 225.15,336.53 C226.24,337.14 226.26,337.03 225.25,335.95 C223.68,334.25 223.61,332.64 225.15,333.60 C225.87,334.04 226.04,333.87 225.60,333.15 C225.20,332.52 224.34,332.00 223.68,332.00 C223.02,332.00 221.25,330.86 219.74,329.46 C217.19,327.09 216.54,325.76 216.92,323.64 C217.19,322.12 214.80,320.00 212.81,320.00 C211.73,320.00 210.21,319.36 209.43,318.57 C207.85,316.99 207.49,315.57 208.90,316.44 C209.39,316.74 210.03,316.36 210.32,315.60 C210.68,314.67 209.41,313.66 206.43,312.53 C203.99,311.60 201.93,310.42 201.85,309.92 C201.77,309.41 201.65,308.44 201.60,307.75 C201.50,306.52 197.28,302.62 195.77,302.38 C195.35,302.31 194.55,302.19 194.00,302.12 C193.45,302.06 193.00,301.13 193.00,300.06 C193.00,297.80 189.38,294.92 187.46,295.65 C186.05,296.19 183.57,292.50 184.42,291.13 C184.70,290.67 183.71,289.73 182.22,289.03 C180.72,288.34 178.87,287.46 178.09,287.08 C177.32,286.71 176.53,285.38 176.34,284.14 C176.10,282.55 176.37,282.09 177.25,282.60 C177.94,283.00 178.20,282.99 177.83,282.58 C177.47,282.17 176.79,281.79 176.33,281.74 C175.88,281.69 174.90,281.04 174.17,280.31 C173.44,279.58 172.48,279.21 172.03,279.48 C170.25,280.58 168.50,276.42 168.40,270.85 C168.34,267.63 168.56,265.03 168.90,265.06 C169.23,265.09 185.25,283.35 204.50,305.63 C225.99,330.51 240.80,346.82 242.87,347.90 L 246.23 349.66 L 243.37 350.84 C240.36,352.08 234.82,352.09 235.59,350.86 ZM 264.46 351.11 C264.24,350.90 265.87,349.82 268.09,348.73 C270.95,347.31 277.64,340.39 291.16,324.87 C301.63,312.84 310.66,303.00 311.22,303.00 C311.78,303.00 311.97,304.00 311.63,305.25 C311.30,306.49 311.02,308.28 311.01,309.24 C311.01,310.27 309.46,311.71 307.25,312.75 C305.14,313.75 303.49,315.25 303.49,316.19 C303.47,317.88 302.38,319.46 301.17,319.55 C298.33,319.76 296.05,321.49 295.54,323.82 C295.21,325.32 293.38,327.79 291.47,329.32 C289.56,330.84 288.00,332.60 288.00,333.23 C288.00,333.86 286.99,335.49 285.75,336.85 C284.51,338.21 284.03,339.02 284.68,338.65 C286.05,337.86 287.47,341.43 286.44,343.09 C286.05,343.73 284.53,343.96 282.88,343.63 C280.20,343.09 279.49,343.70 279.87,346.22 C279.93,346.61 279.55,348.07 279.02,349.45 C278.11,351.84 277.69,351.96 271.46,351.74 C267.84,351.61 264.69,351.32 264.46,351.11 ZM 313.60 302.45 C311.94,301.24 313.09,299.64 327.53,283.06 C336.18,273.13 343.47,265.00 343.73,265.00 C344.13,265.00 343.64,270.17 342.65,276.27 C342.26,278.69 340.01,280.94 339.97,278.95 C339.92,276.82 336.00,281.80 336.00,283.99 C336.00,286.32 333.83,288.03 330.33,288.44 C328.77,288.62 327.40,288.82 327.27,288.89 C327.15,288.95 327.46,290.09 327.97,291.42 C329.07,294.33 327.08,296.52 324.06,295.73 C321.73,295.12 318.71,298.07 319.51,300.18 C320.37,302.42 315.90,304.13 313.60,302.45 ZM 161.46 263.07 C161.82,262.48 161.64,262.00 161.06,262.00 C160.48,262.00 160.00,260.65 160.00,259.00 C160.00,257.35 160.37,256.00 160.81,256.00 C162.16,256.00 165.87,261.61 165.16,262.59 C164.20,263.91 160.65,264.37 161.46,263.07 ZM 346.25 263.34 C344.95,262.81 356.46,249.00 358.20,249.00 C358.71,249.00 358.84,249.45 358.50,250.00 C358.16,250.55 358.35,251.00 358.92,251.00 C361.27,251.00 357.68,255.90 355.11,256.20 C353.19,256.42 352.41,257.16 352.15,259.00 C351.57,263.26 349.61,264.69 346.25,263.34 ZM 152.92 253.41 C152.28,252.63 152.13,252.00 152.58,252.00 C153.03,252.00 152.86,251.46 152.20,250.80 C151.54,250.14 151.00,248.80 151.00,247.82 C151.00,246.36 150.58,246.21 148.58,246.97 C145.69,248.07 144.11,246.63 143.78,242.61 C143.62,240.66 142.87,239.76 141.03,239.33 C137.65,238.52 135.80,236.96 136.40,235.41 C137.09,233.61 134.89,232.10 131.18,231.82 C128.15,231.59 128.00,231.38 128.00,227.35 C128.00,223.40 126.89,221.55 124.50,221.52 C123.95,221.51 123.46,220.82 123.40,220.00 C123.17,216.50 122.87,215.98 120.22,214.61 C118.36,213.65 116.89,213.48 115.79,214.10 C114.88,214.61 113.96,214.68 113.76,214.26 C112.91,212.54 112.98,201.83 113.83,202.15 C114.73,202.49 150.21,242.80 156.17,250.25 C157.82,252.31 158.79,254.03 158.33,254.08 C157.88,254.12 156.73,254.30 155.79,254.48 C154.86,254.66 153.56,254.18 152.92,253.41 ZM 363.03 247.54 C362.34,246.70 361.32,246.30 360.76,246.65 C358.34,248.14 361.10,244.45 369.64,234.73 C374.67,229.01 379.47,224.33 380.31,224.33 C382.30,224.33 384.46,228.94 383.10,230.30 C382.55,230.85 380.61,231.35 378.80,231.40 C375.63,231.50 375.51,231.65 375.78,235.17 C376.00,238.12 375.65,238.98 374.04,239.49 C372.93,239.84 371.54,239.84 370.97,239.48 C369.27,238.43 367.12,240.92 367.57,243.41 C367.82,244.80 367.25,246.37 366.14,247.38 C364.49,248.87 364.15,248.88 363.03,247.54 ZM 382.13 220.25 C383.50,218.74 387.70,214.00 391.46,209.73 C395.21,205.45 398.54,202.20 398.85,202.51 C399.15,202.82 399.27,204.74 399.10,206.79 C398.94,208.83 398.73,211.40 398.65,212.50 C398.53,214.05 397.90,214.43 395.83,214.19 C394.15,213.99 392.20,214.71 390.58,216.12 C388.10,218.27 386.93,220.78 389.00,219.50 C389.55,219.16 390.00,219.10 390.00,219.37 C390.00,220.26 383.72,223.00 381.66,223.00 C379.73,223.00 379.75,222.86 382.13,220.25 ZM 111.48 199.97 C111.13,199.41 110.32,199.03 109.67,199.13 C107.25,199.51 105.00,197.71 105.00,195.39 C105.00,192.01 106.19,192.40 109.88,197.00 C111.65,199.20 112.87,201.00 112.61,201.00 C112.34,201.00 111.83,200.54 111.48,199.97 ZM 406.86 191.82 C411.06,186.98 414.84,183.02 415.25,183.01 C415.66,183.00 416.00,184.41 416.00,186.14 C416.00,189.59 413.75,191.92 410.36,191.97 C408.08,192.00 406.73,194.13 407.58,196.34 C408.26,198.13 406.20,199.65 402.36,200.19 C399.27,200.61 399.36,200.45 406.86,191.82 ZM 97.48 191.18 C97.73,190.94 97.51,189.96 97.00,189.01 C96.36,187.81 96.55,186.70 97.61,185.39 C98.46,184.35 98.86,184.06 98.52,184.75 C98.15,185.47 98.51,186.00 99.37,186.00 C100.19,186.00 101.74,187.24 102.82,188.75 L 104.78 191.50 L 100.91 191.57 C98.78,191.60 97.24,191.43 97.48,191.18 ZM 96.00 167.90 C96.00,162.55 98.52,159.39 101.93,160.48 C104.55,161.31 104.54,162.21 101.86,164.60 C100.68,165.64 98.88,167.85 97.86,169.50 L 96.01 172.50 L 96.00 167.90 ZM 410.92 164.85 C407.93,161.74 407.63,161.07 409.09,160.69 C411.77,159.99 415.46,162.29 415.83,164.89 C416.39,168.77 414.70,168.76 410.92,164.85 Z" fill="rgb(251,251,251)"/>
</g>
</svg>